<?xml version="1.0" encoding="UTF-8" standalone="no"?>
<!DOCTYPE svg PUBLIC "-//W3C//DTD SVG 1.1//EN"
 "http://www.w3.org/Graphics/SVG/1.1/DTD/svg11.dtd">
<!-- Generated by graphviz version 3.0.0 (20220226.1711)
 -->
<!-- Title: dependencies Pages: 1 -->
<svg width="1562pt" height="247pt"
 viewBox="0.00 0.00 1562.00 246.80" xmlns="http://www.w3.org/2000/svg" xmlns:xlink="http://www.w3.org/1999/xlink">
<g id="graph0" class="graph" transform="scale(1 1) rotate(0) translate(4 242.8)">
<title>dependencies</title>
<polygon fill="white" stroke="transparent" points="-4,4 -4,-242.8 1558,-242.8 1558,4 -4,4"/>
<text text-anchor="middle" x="777" y="-8.2" font-family="sans-serif" font-size="14.00">dependencies</text>
<g id="clust1" class="cluster">
<title>cluster_SharedModule</title>
<polygon fill="none" stroke="black" stroke-dasharray="1,5" points="8,-32.8 8,-230.8 1546,-230.8 1546,-32.8 8,-32.8"/>
</g>
<g id="clust2" class="cluster">
<title>cluster_SharedModule_declarations</title>
<polygon fill="none" stroke="black" points="168,-40.8 168,-92.8 1538,-92.8 1538,-40.8 168,-40.8"/>
</g>
<g id="clust12" class="cluster">
<title>cluster_SharedModule_exports</title>
<polygon fill="none" stroke="black" points="725,-170.8 725,-222.8 869,-222.8 869,-170.8 725,-170.8"/>
</g>
<g id="clust11" class="cluster">
<title>cluster_SharedModule_imports</title>
<polygon fill="none" stroke="black" points="16,-40.8 16,-92.8 160,-92.8 160,-40.8 16,-40.8"/>
</g>
<!-- ForgotPasswordComponent -->
<g id="node1" class="node">
<title>ForgotPasswordComponent</title>
<polygon fill="#ffffb3" stroke="black" points="1530.34,-84.8 1357.66,-84.8 1357.66,-48.8 1530.34,-48.8 1530.34,-84.8"/>
<text text-anchor="middle" x="1444" y="-62.6" font-family="Times,serif" font-size="14.00">ForgotPasswordComponent</text>
</g>
<!-- SharedModule -->
<g id="node9" class="node">
<title>SharedModule</title>
<polygon fill="#8dd3c7" stroke="black" points="846.43,-149.8 843.43,-153.8 822.43,-153.8 819.43,-149.8 747.57,-149.8 747.57,-113.8 846.43,-113.8 846.43,-149.8"/>
<text text-anchor="middle" x="797" y="-127.6" font-family="Times,serif" font-size="14.00">SharedModule</text>
</g>
<!-- ForgotPasswordComponent&#45;&gt;SharedModule -->
<g id="edge1" class="edge">
<title>ForgotPasswordComponent&#45;&gt;SharedModule</title>
<path fill="none" stroke="black" d="M1444,-84.81C1444,-107.29 1444,-142.8 1444,-142.8 1444,-142.8 856.43,-142.8 856.43,-142.8"/>
<polygon fill="black" stroke="black" points="856.43,-139.3 846.43,-142.8 856.43,-146.3 856.43,-139.3"/>
</g>
<!-- LoginComponent -->
<g id="node2" class="node">
<title>LoginComponent</title>
<polygon fill="#ffffb3" stroke="black" points="1339.27,-84.8 1224.73,-84.8 1224.73,-48.8 1339.27,-48.8 1339.27,-84.8"/>
<text text-anchor="middle" x="1282" y="-62.6" font-family="Times,serif" font-size="14.00">LoginComponent</text>
</g>
<!-- LoginComponent&#45;&gt;SharedModule -->
<g id="edge2" class="edge">
<title>LoginComponent&#45;&gt;SharedModule</title>
<path fill="none" stroke="black" d="M1282,-84.93C1282,-105.37 1282,-135.8 1282,-135.8 1282,-135.8 856.62,-135.8 856.62,-135.8"/>
<polygon fill="black" stroke="black" points="856.62,-132.3 846.62,-135.8 856.62,-139.3 856.62,-132.3"/>
</g>
<!-- PageNotFoundedComponent -->
<g id="node3" class="node">
<title>PageNotFoundedComponent</title>
<polygon fill="#ffffb3" stroke="black" points="1206.05,-84.8 1027.95,-84.8 1027.95,-48.8 1206.05,-48.8 1206.05,-84.8"/>
<text text-anchor="middle" x="1117" y="-62.6" font-family="Times,serif" font-size="14.00">PageNotFoundedComponent</text>
</g>
<!-- PageNotFoundedComponent&#45;&gt;SharedModule -->
<g id="edge3" class="edge">
<title>PageNotFoundedComponent&#45;&gt;SharedModule</title>
<path fill="none" stroke="black" d="M1117,-85.07C1117,-103.36 1117,-128.8 1117,-128.8 1117,-128.8 856.3,-128.8 856.3,-128.8"/>
<polygon fill="black" stroke="black" points="856.3,-125.3 846.3,-128.8 856.3,-132.3 856.3,-125.3"/>
</g>
<!-- PerfilComponent -->
<g id="node4" class="node">
<title>PerfilComponent</title>
<polygon fill="#ffffb3" stroke="black" points="1010.44,-84.8 897.56,-84.8 897.56,-48.8 1010.44,-48.8 1010.44,-84.8"/>
<text text-anchor="middle" x="954" y="-62.6" font-family="Times,serif" font-size="14.00">PerfilComponent</text>
</g>
<!-- PerfilComponent&#45;&gt;SharedModule -->
<g id="edge4" class="edge">
<title>PerfilComponent&#45;&gt;SharedModule</title>
<path fill="none" stroke="black" d="M954,-84.81C954,-100.85 954,-121.8 954,-121.8 954,-121.8 856.25,-121.8 856.25,-121.8"/>
<polygon fill="black" stroke="black" points="856.25,-118.3 846.25,-121.8 856.24,-125.3 856.25,-118.3"/>
</g>
<!-- ResetPasswordComponent -->
<g id="node5" class="node">
<title>ResetPasswordComponent</title>
<polygon fill="#ffffb3" stroke="black" points="880.1,-84.8 713.9,-84.8 713.9,-48.8 880.1,-48.8 880.1,-84.8"/>
<text text-anchor="middle" x="797" y="-62.6" font-family="Times,serif" font-size="14.00">ResetPasswordComponent</text>
</g>
<!-- ResetPasswordComponent&#45;&gt;SharedModule -->
<g id="edge5" class="edge">
<title>ResetPasswordComponent&#45;&gt;SharedModule</title>
<path fill="none" stroke="black" d="M797,-84.91C797,-84.91 797,-103.79 797,-103.79"/>
<polygon fill="black" stroke="black" points="793.5,-103.79 797,-113.79 800.5,-103.79 793.5,-103.79"/>
</g>
<!-- SendVerificarEmailComponent -->
<g id="node6" class="node">
<title>SendVerificarEmailComponent</title>
<polygon fill="#ffffb3" stroke="black" points="695.78,-84.8 502.22,-84.8 502.22,-48.8 695.78,-48.8 695.78,-84.8"/>
<text text-anchor="middle" x="599" y="-62.6" font-family="Times,serif" font-size="14.00">SendVerificarEmailComponent</text>
</g>
<!-- SendVerificarEmailComponent&#45;&gt;SharedModule -->
<g id="edge6" class="edge">
<title>SendVerificarEmailComponent&#45;&gt;SharedModule</title>
<path fill="none" stroke="black" d="M599,-84.81C599,-100.85 599,-121.8 599,-121.8 599,-121.8 737.55,-121.8 737.55,-121.8"/>
<polygon fill="black" stroke="black" points="737.55,-125.3 747.55,-121.8 737.55,-118.3 737.55,-125.3"/>
</g>
<!-- SidebarComponent -->
<g id="node7" class="node">
<title>SidebarComponent</title>
<polygon fill="#ffffb3" stroke="black" points="484.1,-84.8 359.9,-84.8 359.9,-48.8 484.1,-48.8 484.1,-84.8"/>
<text text-anchor="middle" x="422" y="-62.6" font-family="Times,serif" font-size="14.00">SidebarComponent</text>
</g>
<!-- SidebarComponent&#45;&gt;SharedModule -->
<g id="edge7" class="edge">
<title>SidebarComponent&#45;&gt;SharedModule</title>
<path fill="none" stroke="black" d="M422,-85.07C422,-103.36 422,-128.8 422,-128.8 422,-128.8 737.59,-128.8 737.59,-128.8"/>
<polygon fill="black" stroke="black" points="737.59,-132.3 747.59,-128.8 737.59,-125.3 737.59,-132.3"/>
</g>
<!-- VerificarEmailComponent -->
<g id="node8" class="node">
<title>VerificarEmailComponent</title>
<polygon fill="#ffffb3" stroke="black" points="341.78,-84.8 176.22,-84.8 176.22,-48.8 341.78,-48.8 341.78,-84.8"/>
<text text-anchor="middle" x="259" y="-62.6" font-family="Times,serif" font-size="14.00">VerificarEmailComponent</text>
</g>
<!-- VerificarEmailComponent&#45;&gt;SharedModule -->
<g id="edge8" class="edge">
<title>VerificarEmailComponent&#45;&gt;SharedModule</title>
<path fill="none" stroke="black" d="M259,-84.93C259,-105.37 259,-135.8 259,-135.8 259,-135.8 737.35,-135.8 737.35,-135.8"/>
<polygon fill="black" stroke="black" points="737.35,-139.3 747.35,-135.8 737.35,-132.3 737.35,-139.3"/>
</g>
<!-- SidebarComponent  -->
<g id="node11" class="node">
<title>SidebarComponent </title>
<polygon fill="#fb8072" stroke="black" points="860.6,-214.8 733.4,-214.8 733.4,-178.8 860.6,-178.8 860.6,-214.8"/>
<text text-anchor="middle" x="797" y="-192.6" font-family="Times,serif" font-size="14.00">SidebarComponent </text>
</g>
<!-- SharedModule&#45;&gt;SidebarComponent  -->
<g id="edge10" class="edge">
<title>SharedModule&#45;&gt;SidebarComponent </title>
<path fill="none" stroke="black" stroke-dasharray="5,2" d="M797,-149.91C797,-149.91 797,-168.79 797,-168.79"/>
<polygon fill="black" stroke="black" points="793.5,-168.79 797,-178.79 800.5,-168.79 793.5,-168.79"/>
</g>
<!-- AppRoutingModule -->
<g id="node10" class="node">
<title>AppRoutingModule</title>
<polygon fill="#8dd3c7" stroke="black" points="152.28,-84.8 149.28,-88.8 128.28,-88.8 125.28,-84.8 23.72,-84.8 23.72,-48.8 152.28,-48.8 152.28,-84.8"/>
<text text-anchor="middle" x="88" y="-62.6" font-family="Times,serif" font-size="14.00">AppRoutingModule</text>
</g>
<!-- AppRoutingModule&#45;&gt;SharedModule -->
<g id="edge9" class="edge">
<title>AppRoutingModule&#45;&gt;SharedModule</title>
<path fill="none" stroke="black" d="M88,-84.81C88,-107.29 88,-142.8 88,-142.8 88,-142.8 737.71,-142.8 737.71,-142.8"/>
<polygon fill="black" stroke="black" points="737.71,-146.3 747.71,-142.8 737.71,-139.3 737.71,-146.3"/>
</g>
</g>
</svg>
