<?xml version="1.0" encoding="UTF-8" standalone="no"?>
<!DOCTYPE svg PUBLIC "-//W3C//DTD SVG 1.1//EN"
 "http://www.w3.org/Graphics/SVG/1.1/DTD/svg11.dtd">
<!-- Generated by graphviz version 3.0.0 (20220226.1711)
 -->
<!-- Title: dependencies Pages: 1 -->
<svg width="1006pt" height="247pt"
 viewBox="0.00 0.00 1006.00 246.80" xmlns="http://www.w3.org/2000/svg" xmlns:xlink="http://www.w3.org/1999/xlink">
<g id="graph0" class="graph" transform="scale(1 1) rotate(0) translate(4 242.8)">
<title>dependencies</title>
<polygon fill="white" stroke="transparent" points="-4,4 -4,-242.8 1002,-242.8 1002,4 -4,4"/>
<text text-anchor="middle" x="499" y="-8.2" font-family="sans-serif" font-size="14.00">dependencies</text>
<g id="clust1" class="cluster">
<title>cluster_AnexoVModule</title>
<polygon fill="none" stroke="black" stroke-dasharray="1,5" points="8,-32.8 8,-230.8 990,-230.8 990,-32.8 8,-32.8"/>
</g>
<g id="clust8" class="cluster">
<title>cluster_AnexoVModule_exports</title>
<polygon fill="none" stroke="black" points="415,-170.8 415,-222.8 607,-222.8 607,-170.8 415,-170.8"/>
</g>
<g id="clust7" class="cluster">
<title>cluster_AnexoVModule_imports</title>
<polygon fill="none" stroke="black" points="814,-40.8 814,-92.8 982,-92.8 982,-40.8 814,-40.8"/>
</g>
<g id="clust2" class="cluster">
<title>cluster_AnexoVModule_declarations</title>
<polygon fill="none" stroke="black" points="16,-40.8 16,-92.8 806,-92.8 806,-40.8 16,-40.8"/>
</g>
<!-- BuscarPorFechaComponent -->
<g id="node1" class="node">
<title>BuscarPorFechaComponent</title>
<polygon fill="#ffffb3" stroke="black" points="797.58,-84.8 624.42,-84.8 624.42,-48.8 797.58,-48.8 797.58,-84.8"/>
<text text-anchor="middle" x="711" y="-62.6" font-family="Times,serif" font-size="14.00">BuscarPorFechaComponent</text>
</g>
<!-- AnexoVModule -->
<g id="node5" class="node">
<title>AnexoVModule</title>
<polygon fill="#8dd3c7" stroke="black" points="564.49,-149.8 561.49,-153.8 540.49,-153.8 537.49,-149.8 457.51,-149.8 457.51,-113.8 564.49,-113.8 564.49,-149.8"/>
<text text-anchor="middle" x="511" y="-127.6" font-family="Times,serif" font-size="14.00">AnexoVModule</text>
</g>
<!-- BuscarPorFechaComponent&#45;&gt;AnexoVModule -->
<g id="edge1" class="edge">
<title>BuscarPorFechaComponent&#45;&gt;AnexoVModule</title>
<path fill="none" stroke="black" d="M711,-84.82C711,-102.17 711,-125.8 711,-125.8 711,-125.8 574.6,-125.8 574.6,-125.8"/>
<polygon fill="black" stroke="black" points="574.6,-122.3 564.6,-125.8 574.6,-129.3 574.6,-122.3"/>
</g>
<!-- CalendarioAnexoVComponent -->
<g id="node2" class="node">
<title>CalendarioAnexoVComponent</title>
<polygon fill="#ffffb3" stroke="black" points="606.19,-84.8 415.81,-84.8 415.81,-48.8 606.19,-48.8 606.19,-84.8"/>
<text text-anchor="middle" x="511" y="-62.6" font-family="Times,serif" font-size="14.00">CalendarioAnexoVComponent</text>
</g>
<!-- CalendarioAnexoVComponent&#45;&gt;AnexoVModule -->
<g id="edge2" class="edge">
<title>CalendarioAnexoVComponent&#45;&gt;AnexoVModule</title>
<path fill="none" stroke="black" d="M511,-84.91C511,-84.91 511,-103.79 511,-103.79"/>
<polygon fill="black" stroke="black" points="507.5,-103.79 511,-113.79 514.5,-103.79 507.5,-103.79"/>
</g>
<!-- InsertarAnexoVComponent -->
<g id="node3" class="node">
<title>InsertarAnexoVComponent</title>
<polygon fill="#ffffb3" stroke="black" points="397.52,-84.8 226.48,-84.8 226.48,-48.8 397.52,-48.8 397.52,-84.8"/>
<text text-anchor="middle" x="312" y="-62.6" font-family="Times,serif" font-size="14.00">InsertarAnexoVComponent</text>
</g>
<!-- InsertarAnexoVComponent&#45;&gt;AnexoVModule -->
<g id="edge3" class="edge">
<title>InsertarAnexoVComponent&#45;&gt;AnexoVModule</title>
<path fill="none" stroke="black" d="M312,-84.82C312,-102.17 312,-125.8 312,-125.8 312,-125.8 447.41,-125.8 447.41,-125.8"/>
<polygon fill="black" stroke="black" points="447.41,-129.3 457.41,-125.8 447.41,-122.3 447.41,-129.3"/>
</g>
<!-- ModificarAnexoVComponent -->
<g id="node4" class="node">
<title>ModificarAnexoVComponent</title>
<polygon fill="#ffffb3" stroke="black" points="208.25,-84.8 23.75,-84.8 23.75,-48.8 208.25,-48.8 208.25,-84.8"/>
<text text-anchor="middle" x="116" y="-62.6" font-family="Times,serif" font-size="14.00">ModificarAnexoVComponent</text>
</g>
<!-- ModificarAnexoVComponent&#45;&gt;AnexoVModule -->
<g id="edge4" class="edge">
<title>ModificarAnexoVComponent&#45;&gt;AnexoVModule</title>
<path fill="none" stroke="black" d="M116,-85.08C116,-106.12 116,-137.8 116,-137.8 116,-137.8 447.32,-137.8 447.32,-137.8"/>
<polygon fill="black" stroke="black" points="447.32,-141.3 457.32,-137.8 447.32,-134.3 447.32,-141.3"/>
</g>
<!-- InsertarAnexoVComponent  -->
<g id="node7" class="node">
<title>InsertarAnexoVComponent </title>
<polygon fill="#fb8072" stroke="black" points="598.52,-214.8 423.48,-214.8 423.48,-178.8 598.52,-178.8 598.52,-214.8"/>
<text text-anchor="middle" x="511" y="-192.6" font-family="Times,serif" font-size="14.00">InsertarAnexoVComponent </text>
</g>
<!-- AnexoVModule&#45;&gt;InsertarAnexoVComponent  -->
<g id="edge6" class="edge">
<title>AnexoVModule&#45;&gt;InsertarAnexoVComponent </title>
<path fill="none" stroke="black" stroke-dasharray="5,2" d="M511,-149.91C511,-149.91 511,-168.79 511,-168.79"/>
<polygon fill="black" stroke="black" points="507.5,-168.79 511,-178.79 514.5,-168.79 507.5,-168.79"/>
</g>
<!-- AnexoVRoutingModule -->
<g id="node6" class="node">
<title>AnexoVRoutingModule</title>
<polygon fill="#8dd3c7" stroke="black" points="974.1,-84.8 971.1,-88.8 950.1,-88.8 947.1,-84.8 821.9,-84.8 821.9,-48.8 974.1,-48.8 974.1,-84.8"/>
<text text-anchor="middle" x="898" y="-62.6" font-family="Times,serif" font-size="14.00">AnexoVRoutingModule</text>
</g>
<!-- AnexoVRoutingModule&#45;&gt;AnexoVModule -->
<g id="edge5" class="edge">
<title>AnexoVRoutingModule&#45;&gt;AnexoVModule</title>
<path fill="none" stroke="black" d="M898,-85.08C898,-106.12 898,-137.8 898,-137.8 898,-137.8 574.81,-137.8 574.81,-137.8"/>
<polygon fill="black" stroke="black" points="574.81,-134.3 564.81,-137.8 574.81,-141.3 574.81,-134.3"/>
</g>
</g>
</svg>
