<?xml version="1.0" encoding="UTF-8" standalone="no"?>
<!DOCTYPE svg PUBLIC "-//W3C//DTD SVG 1.1//EN"
 "http://www.w3.org/Graphics/SVG/1.1/DTD/svg11.dtd">
<!-- Generated by graphviz version 3.0.0 (20220226.1711)
 -->
<!-- Title: dependencies Pages: 1 -->
<svg width="1087pt" height="174pt"
 viewBox="0.00 0.00 1087.00 173.80" xmlns="http://www.w3.org/2000/svg" xmlns:xlink="http://www.w3.org/1999/xlink">
<g id="graph0" class="graph" transform="scale(1 1) rotate(0) translate(4 169.8)">
<title>dependencies</title>
<polygon fill="white" stroke="transparent" points="-4,4 -4,-169.8 1083,-169.8 1083,4 -4,4"/>
<text text-anchor="middle" x="539.5" y="-8.2" font-family="sans-serif" font-size="14.00">dependencies</text>
<g id="clust1" class="cluster">
<title>cluster_TutorEscolarModule</title>
<polygon fill="none" stroke="black" stroke-dasharray="1,5" points="8,-32.8 8,-157.8 1071,-157.8 1071,-32.8 8,-32.8"/>
</g>
<g id="clust2" class="cluster">
<title>cluster_TutorEscolarModule_declarations</title>
<polygon fill="none" stroke="black" points="168,-40.8 168,-92.8 1063,-92.8 1063,-40.8 168,-40.8"/>
</g>
<g id="clust8" class="cluster">
<title>cluster_TutorEscolarModule_imports</title>
<polygon fill="none" stroke="black" points="16,-40.8 16,-92.8 160,-92.8 160,-40.8 16,-40.8"/>
</g>
<!-- AlumnoEscolarComponent -->
<g id="node1" class="node">
<title>AlumnoEscolarComponent</title>
<polygon fill="#ffffb3" stroke="black" points="1054.7,-84.8 885.3,-84.8 885.3,-48.8 1054.7,-48.8 1054.7,-84.8"/>
<text text-anchor="middle" x="970" y="-62.6" font-family="Times,serif" font-size="14.00">AlumnoEscolarComponent</text>
</g>
<!-- TutorEscolarModule -->
<g id="node6" class="node">
<title>TutorEscolarModule</title>
<polygon fill="#8dd3c7" stroke="black" points="588.14,-149.8 585.14,-153.8 564.14,-153.8 561.14,-149.8 455.86,-149.8 455.86,-113.8 588.14,-113.8 588.14,-149.8"/>
<text text-anchor="middle" x="522" y="-127.6" font-family="Times,serif" font-size="14.00">TutorEscolarModule</text>
</g>
<!-- AlumnoEscolarComponent&#45;&gt;TutorEscolarModule -->
<g id="edge1" class="edge">
<title>AlumnoEscolarComponent&#45;&gt;TutorEscolarModule</title>
<path fill="none" stroke="black" d="M970,-85.08C970,-106.12 970,-137.8 970,-137.8 970,-137.8 598.59,-137.8 598.59,-137.8"/>
<polygon fill="black" stroke="black" points="598.59,-134.3 588.59,-137.8 598.59,-141.3 598.59,-134.3"/>
</g>
<!-- ChatEscoComponent -->
<g id="node2" class="node">
<title>ChatEscoComponent</title>
<polygon fill="#ffffb3" stroke="black" points="867.49,-84.8 732.51,-84.8 732.51,-48.8 867.49,-48.8 867.49,-84.8"/>
<text text-anchor="middle" x="800" y="-62.6" font-family="Times,serif" font-size="14.00">ChatEscoComponent</text>
</g>
<!-- ChatEscoComponent&#45;&gt;TutorEscolarModule -->
<g id="edge2" class="edge">
<title>ChatEscoComponent&#45;&gt;TutorEscolarModule</title>
<path fill="none" stroke="black" d="M800,-84.82C800,-102.17 800,-125.8 800,-125.8 800,-125.8 598.23,-125.8 598.23,-125.8"/>
<polygon fill="black" stroke="black" points="598.23,-122.3 588.23,-125.8 598.23,-129.3 598.23,-122.3"/>
</g>
<!-- ListarAlumnosEscoComponent -->
<g id="node3" class="node">
<title>ListarAlumnosEscoComponent</title>
<polygon fill="#ffffb3" stroke="black" points="714.04,-84.8 521.96,-84.8 521.96,-48.8 714.04,-48.8 714.04,-84.8"/>
<text text-anchor="middle" x="618" y="-62.6" font-family="Times,serif" font-size="14.00">ListarAlumnosEscoComponent</text>
</g>
<!-- ListarAlumnosEscoComponent&#45;&gt;TutorEscolarModule -->
<g id="edge3" class="edge">
<title>ListarAlumnosEscoComponent&#45;&gt;TutorEscolarModule</title>
<path fill="none" stroke="black" d="M555.02,-84.91C555.02,-84.91 555.02,-103.79 555.02,-103.79"/>
<polygon fill="black" stroke="black" points="551.52,-103.79 555.02,-113.79 558.52,-103.79 551.52,-103.79"/>
</g>
<!-- TutorEscolarComponent -->
<g id="node4" class="node">
<title>TutorEscolarComponent</title>
<polygon fill="#ffffb3" stroke="black" points="504.41,-84.8 349.59,-84.8 349.59,-48.8 504.41,-48.8 504.41,-84.8"/>
<text text-anchor="middle" x="427" y="-62.6" font-family="Times,serif" font-size="14.00">TutorEscolarComponent</text>
</g>
<!-- TutorEscolarComponent&#45;&gt;TutorEscolarModule -->
<g id="edge4" class="edge">
<title>TutorEscolarComponent&#45;&gt;TutorEscolarModule</title>
<path fill="none" stroke="black" d="M479.94,-84.91C479.94,-84.91 479.94,-103.79 479.94,-103.79"/>
<polygon fill="black" stroke="black" points="476.44,-103.79 479.94,-113.79 483.44,-103.79 476.44,-103.79"/>
</g>
<!-- ValidarTareaComponent -->
<g id="node5" class="node">
<title>ValidarTareaComponent</title>
<polygon fill="#ffffb3" stroke="black" points="331.67,-84.8 176.33,-84.8 176.33,-48.8 331.67,-48.8 331.67,-84.8"/>
<text text-anchor="middle" x="254" y="-62.6" font-family="Times,serif" font-size="14.00">ValidarTareaComponent</text>
</g>
<!-- ValidarTareaComponent&#45;&gt;TutorEscolarModule -->
<g id="edge5" class="edge">
<title>ValidarTareaComponent&#45;&gt;TutorEscolarModule</title>
<path fill="none" stroke="black" d="M254,-84.82C254,-102.17 254,-125.8 254,-125.8 254,-125.8 445.75,-125.8 445.75,-125.8"/>
<polygon fill="black" stroke="black" points="445.75,-129.3 455.75,-125.8 445.75,-122.3 445.75,-129.3"/>
</g>
<!-- AppRoutingModule -->
<g id="node7" class="node">
<title>AppRoutingModule</title>
<polygon fill="#8dd3c7" stroke="black" points="152.28,-84.8 149.28,-88.8 128.28,-88.8 125.28,-84.8 23.72,-84.8 23.72,-48.8 152.28,-48.8 152.28,-84.8"/>
<text text-anchor="middle" x="88" y="-62.6" font-family="Times,serif" font-size="14.00">AppRoutingModule</text>
</g>
<!-- AppRoutingModule&#45;&gt;TutorEscolarModule -->
<g id="edge6" class="edge">
<title>AppRoutingModule&#45;&gt;TutorEscolarModule</title>
<path fill="none" stroke="black" d="M88,-85.08C88,-106.12 88,-137.8 88,-137.8 88,-137.8 445.61,-137.8 445.61,-137.8"/>
<polygon fill="black" stroke="black" points="445.61,-141.3 455.61,-137.8 445.61,-134.3 445.61,-141.3"/>
</g>
</g>
</svg>
