<?xml version="1.0" encoding="UTF-8" standalone="no"?>
<!DOCTYPE svg PUBLIC "-//W3C//DTD SVG 1.1//EN"
 "http://www.w3.org/Graphics/SVG/1.1/DTD/svg11.dtd">
<!-- Generated by graphviz version 3.0.0 (20220226.1711)
 -->
<!-- Title: dependencies Pages: 1 -->
<svg width="1030pt" height="174pt"
 viewBox="0.00 0.00 1030.00 173.80" xmlns="http://www.w3.org/2000/svg" xmlns:xlink="http://www.w3.org/1999/xlink">
<g id="graph0" class="graph" transform="scale(1 1) rotate(0) translate(4 169.8)">
<title>dependencies</title>
<polygon fill="white" stroke="transparent" points="-4,4 -4,-169.8 1026,-169.8 1026,4 -4,4"/>
<text text-anchor="middle" x="511" y="-8.2" font-family="sans-serif" font-size="14.00">dependencies</text>
<g id="clust1" class="cluster">
<title>cluster_TutorEmpresaModule</title>
<polygon fill="none" stroke="black" stroke-dasharray="1,5" points="8,-32.8 8,-157.8 1014,-157.8 1014,-32.8 8,-32.8"/>
</g>
<g id="clust8" class="cluster">
<title>cluster_TutorEmpresaModule_imports</title>
<polygon fill="none" stroke="black" points="862,-40.8 862,-92.8 1006,-92.8 1006,-40.8 862,-40.8"/>
</g>
<g id="clust2" class="cluster">
<title>cluster_TutorEmpresaModule_declarations</title>
<polygon fill="none" stroke="black" points="16,-40.8 16,-92.8 854,-92.8 854,-40.8 16,-40.8"/>
</g>
<!-- AlumnosEmpresaComponent -->
<g id="node1" class="node">
<title>AlumnosEmpresaComponent</title>
<polygon fill="#ffffb3" stroke="black" points="845.65,-84.8 664.35,-84.8 664.35,-48.8 845.65,-48.8 845.65,-84.8"/>
<text text-anchor="middle" x="755" y="-62.6" font-family="Times,serif" font-size="14.00">AlumnosEmpresaComponent</text>
</g>
<!-- TutorEmpresaModule -->
<g id="node6" class="node">
<title>TutorEmpresaModule</title>
<polygon fill="#8dd3c7" stroke="black" points="568.64,-149.8 565.64,-153.8 544.64,-153.8 541.64,-149.8 429.36,-149.8 429.36,-113.8 568.64,-113.8 568.64,-149.8"/>
<text text-anchor="middle" x="499" y="-127.6" font-family="Times,serif" font-size="14.00">TutorEmpresaModule</text>
</g>
<!-- AlumnosEmpresaComponent&#45;&gt;TutorEmpresaModule -->
<g id="edge1" class="edge">
<title>AlumnosEmpresaComponent&#45;&gt;TutorEmpresaModule</title>
<path fill="none" stroke="black" d="M755,-84.82C755,-102.17 755,-125.8 755,-125.8 755,-125.8 578.95,-125.8 578.95,-125.8"/>
<polygon fill="black" stroke="black" points="578.95,-122.3 568.95,-125.8 578.95,-129.3 578.95,-122.3"/>
</g>
<!-- ChatEmpComponent -->
<g id="node2" class="node">
<title>ChatEmpComponent</title>
<polygon fill="#ffffb3" stroke="black" points="646.21,-84.8 511.79,-84.8 511.79,-48.8 646.21,-48.8 646.21,-84.8"/>
<text text-anchor="middle" x="579" y="-62.6" font-family="Times,serif" font-size="14.00">ChatEmpComponent</text>
</g>
<!-- ChatEmpComponent&#45;&gt;TutorEmpresaModule -->
<g id="edge2" class="edge">
<title>ChatEmpComponent&#45;&gt;TutorEmpresaModule</title>
<path fill="none" stroke="black" d="M540.36,-84.91C540.36,-84.91 540.36,-103.79 540.36,-103.79"/>
<polygon fill="black" stroke="black" points="536.86,-103.79 540.36,-113.79 543.86,-103.79 536.86,-103.79"/>
</g>
<!-- ListarTodosComponent -->
<g id="node3" class="node">
<title>ListarTodosComponent</title>
<polygon fill="#ffffb3" stroke="black" points="493.49,-84.8 344.51,-84.8 344.51,-48.8 493.49,-48.8 493.49,-84.8"/>
<text text-anchor="middle" x="419" y="-62.6" font-family="Times,serif" font-size="14.00">ListarTodosComponent</text>
</g>
<!-- ListarTodosComponent&#45;&gt;TutorEmpresaModule -->
<g id="edge3" class="edge">
<title>ListarTodosComponent&#45;&gt;TutorEmpresaModule</title>
<path fill="none" stroke="black" d="M461.34,-84.91C461.34,-84.91 461.34,-103.79 461.34,-103.79"/>
<polygon fill="black" stroke="black" points="457.84,-103.79 461.34,-113.79 464.84,-103.79 457.84,-103.79"/>
</g>
<!-- TutorEmpresaComponent -->
<g id="node4" class="node">
<title>TutorEmpresaComponent</title>
<polygon fill="#ffffb3" stroke="black" points="326.91,-84.8 165.09,-84.8 165.09,-48.8 326.91,-48.8 326.91,-84.8"/>
<text text-anchor="middle" x="246" y="-62.6" font-family="Times,serif" font-size="14.00">TutorEmpresaComponent</text>
</g>
<!-- TutorEmpresaComponent&#45;&gt;TutorEmpresaModule -->
<g id="edge4" class="edge">
<title>TutorEmpresaComponent&#45;&gt;TutorEmpresaModule</title>
<path fill="none" stroke="black" d="M246,-84.82C246,-102.17 246,-125.8 246,-125.8 246,-125.8 419.2,-125.8 419.2,-125.8"/>
<polygon fill="black" stroke="black" points="419.2,-129.3 429.2,-125.8 419.2,-122.3 419.2,-129.3"/>
</g>
<!-- ValidarComponent -->
<g id="node5" class="node">
<title>ValidarComponent</title>
<polygon fill="#ffffb3" stroke="black" points="147.81,-84.8 24.19,-84.8 24.19,-48.8 147.81,-48.8 147.81,-84.8"/>
<text text-anchor="middle" x="86" y="-62.6" font-family="Times,serif" font-size="14.00">ValidarComponent</text>
</g>
<!-- ValidarComponent&#45;&gt;TutorEmpresaModule -->
<g id="edge5" class="edge">
<title>ValidarComponent&#45;&gt;TutorEmpresaModule</title>
<path fill="none" stroke="black" d="M86,-85.08C86,-106.12 86,-137.8 86,-137.8 86,-137.8 418.94,-137.8 418.94,-137.8"/>
<polygon fill="black" stroke="black" points="418.94,-141.3 428.94,-137.8 418.94,-134.3 418.94,-141.3"/>
</g>
<!-- AppRoutingModule -->
<g id="node7" class="node">
<title>AppRoutingModule</title>
<polygon fill="#8dd3c7" stroke="black" points="998.28,-84.8 995.28,-88.8 974.28,-88.8 971.28,-84.8 869.72,-84.8 869.72,-48.8 998.28,-48.8 998.28,-84.8"/>
<text text-anchor="middle" x="934" y="-62.6" font-family="Times,serif" font-size="14.00">AppRoutingModule</text>
</g>
<!-- AppRoutingModule&#45;&gt;TutorEmpresaModule -->
<g id="edge6" class="edge">
<title>AppRoutingModule&#45;&gt;TutorEmpresaModule</title>
<path fill="none" stroke="black" d="M934,-85.08C934,-106.12 934,-137.8 934,-137.8 934,-137.8 578.89,-137.8 578.89,-137.8"/>
<polygon fill="black" stroke="black" points="578.89,-134.3 568.89,-137.8 578.89,-141.3 578.89,-134.3"/>
</g>
</g>
</svg>
