<?xml version="1.0" encoding="UTF-8" standalone="no"?>
<!DOCTYPE svg PUBLIC "-//W3C//DTD SVG 1.1//EN"
 "http://www.w3.org/Graphics/SVG/1.1/DTD/svg11.dtd">
<!-- Generated by graphviz version 3.0.0 (20220226.1711)
 -->
<!-- Title: dependencies Pages: 1 -->
<svg width="963pt" height="247pt"
 viewBox="0.00 0.00 963.00 246.80" xmlns="http://www.w3.org/2000/svg" xmlns:xlink="http://www.w3.org/1999/xlink">
<g id="graph0" class="graph" transform="scale(1 1) rotate(0) translate(4 242.8)">
<title>dependencies</title>
<polygon fill="white" stroke="transparent" points="-4,4 -4,-242.8 959,-242.8 959,4 -4,4"/>
<text text-anchor="middle" x="477.5" y="-8.2" font-family="sans-serif" font-size="14.00">dependencies</text>
<g id="clust1" class="cluster">
<title>cluster_EmpresasModule</title>
<polygon fill="none" stroke="black" stroke-dasharray="1,5" points="8,-32.8 8,-230.8 947,-230.8 947,-32.8 8,-32.8"/>
</g>
<g id="clust8" class="cluster">
<title>cluster_EmpresasModule_exports</title>
<polygon fill="none" stroke="black" points="295,-170.8 295,-222.8 697,-222.8 697,-170.8 295,-170.8"/>
</g>
<g id="clust2" class="cluster">
<title>cluster_EmpresasModule_declarations</title>
<polygon fill="none" stroke="black" points="200,-40.8 200,-92.8 939,-92.8 939,-40.8 200,-40.8"/>
</g>
<g id="clust7" class="cluster">
<title>cluster_EmpresasModule_imports</title>
<polygon fill="none" stroke="black" points="16,-40.8 16,-92.8 192,-92.8 192,-40.8 16,-40.8"/>
</g>
<!-- EmpresasComponent -->
<g id="node1" class="node">
<title>EmpresasComponent</title>
<polygon fill="#ffffb3" stroke="black" points="930.76,-84.8 795.24,-84.8 795.24,-48.8 930.76,-48.8 930.76,-84.8"/>
<text text-anchor="middle" x="863" y="-62.6" font-family="Times,serif" font-size="14.00">EmpresasComponent</text>
</g>
<!-- EmpresasModule -->
<g id="node5" class="node">
<title>EmpresasModule</title>
<polygon fill="#8dd3c7" stroke="black" points="558.98,-149.8 555.98,-153.8 534.98,-153.8 531.98,-149.8 445.02,-149.8 445.02,-113.8 558.98,-113.8 558.98,-149.8"/>
<text text-anchor="middle" x="502" y="-127.6" font-family="Times,serif" font-size="14.00">EmpresasModule</text>
</g>
<!-- EmpresasComponent&#45;&gt;EmpresasModule -->
<g id="edge1" class="edge">
<title>EmpresasComponent&#45;&gt;EmpresasModule</title>
<path fill="none" stroke="black" d="M863,-85.08C863,-106.12 863,-137.8 863,-137.8 863,-137.8 569.2,-137.8 569.2,-137.8"/>
<polygon fill="black" stroke="black" points="569.2,-134.3 559.2,-137.8 569.2,-141.3 569.2,-134.3"/>
</g>
<!-- InsertarEmpresaComponent -->
<g id="node2" class="node">
<title>InsertarEmpresaComponent</title>
<polygon fill="#ffffb3" stroke="black" points="777.56,-84.8 604.44,-84.8 604.44,-48.8 777.56,-48.8 777.56,-84.8"/>
<text text-anchor="middle" x="691" y="-62.6" font-family="Times,serif" font-size="14.00">InsertarEmpresaComponent</text>
</g>
<!-- InsertarEmpresaComponent&#45;&gt;EmpresasModule -->
<g id="edge2" class="edge">
<title>InsertarEmpresaComponent&#45;&gt;EmpresasModule</title>
<path fill="none" stroke="black" d="M646.71,-84.82C646.71,-102.17 646.71,-125.8 646.71,-125.8 646.71,-125.8 569.19,-125.8 569.19,-125.8"/>
<polygon fill="black" stroke="black" points="569.19,-122.3 559.19,-125.8 569.19,-129.3 569.19,-122.3"/>
</g>
<!-- ListarEmpresasComponent -->
<g id="node3" class="node">
<title>ListarEmpresasComponent</title>
<polygon fill="#ffffb3" stroke="black" points="586.41,-84.8 417.59,-84.8 417.59,-48.8 586.41,-48.8 586.41,-84.8"/>
<text text-anchor="middle" x="502" y="-62.6" font-family="Times,serif" font-size="14.00">ListarEmpresasComponent</text>
</g>
<!-- ListarEmpresasComponent&#45;&gt;EmpresasModule -->
<g id="edge3" class="edge">
<title>ListarEmpresasComponent&#45;&gt;EmpresasModule</title>
<path fill="none" stroke="black" d="M502,-84.91C502,-84.91 502,-103.79 502,-103.79"/>
<polygon fill="black" stroke="black" points="498.5,-103.79 502,-113.79 505.5,-103.79 498.5,-103.79"/>
</g>
<!-- ModificarEmpresasComponent -->
<g id="node4" class="node">
<title>ModificarEmpresasComponent</title>
<polygon fill="#ffffb3" stroke="black" points="399.74,-84.8 208.26,-84.8 208.26,-48.8 399.74,-48.8 399.74,-84.8"/>
<text text-anchor="middle" x="304" y="-62.6" font-family="Times,serif" font-size="14.00">ModificarEmpresasComponent</text>
</g>
<!-- ModificarEmpresasComponent&#45;&gt;EmpresasModule -->
<g id="edge4" class="edge">
<title>ModificarEmpresasComponent&#45;&gt;EmpresasModule</title>
<path fill="none" stroke="black" d="M351.62,-84.82C351.62,-102.17 351.62,-125.8 351.62,-125.8 351.62,-125.8 434.72,-125.8 434.72,-125.8"/>
<polygon fill="black" stroke="black" points="434.72,-129.3 444.72,-125.8 434.72,-122.3 434.72,-129.3"/>
</g>
<!-- ListarEmpresasComponent  -->
<g id="node7" class="node">
<title>ListarEmpresasComponent </title>
<polygon fill="#fb8072" stroke="black" points="688.91,-214.8 517.09,-214.8 517.09,-178.8 688.91,-178.8 688.91,-214.8"/>
<text text-anchor="middle" x="603" y="-192.6" font-family="Times,serif" font-size="14.00">ListarEmpresasComponent </text>
</g>
<!-- EmpresasModule&#45;&gt;ListarEmpresasComponent  -->
<g id="edge6" class="edge">
<title>EmpresasModule&#45;&gt;ListarEmpresasComponent </title>
<path fill="none" stroke="black" stroke-dasharray="5,2" d="M538.02,-149.91C538.02,-149.91 538.02,-168.79 538.02,-168.79"/>
<polygon fill="black" stroke="black" points="534.52,-168.79 538.02,-178.79 541.52,-168.79 534.52,-168.79"/>
</g>
<!-- ModificarEmpresasComponent  -->
<g id="node8" class="node">
<title>ModificarEmpresasComponent </title>
<polygon fill="#fb8072" stroke="black" points="498.74,-214.8 303.26,-214.8 303.26,-178.8 498.74,-178.8 498.74,-214.8"/>
<text text-anchor="middle" x="401" y="-192.6" font-family="Times,serif" font-size="14.00">ModificarEmpresasComponent </text>
</g>
<!-- EmpresasModule&#45;&gt;ModificarEmpresasComponent  -->
<g id="edge7" class="edge">
<title>EmpresasModule&#45;&gt;ModificarEmpresasComponent </title>
<path fill="none" stroke="black" stroke-dasharray="5,2" d="M471.81,-149.91C471.81,-149.91 471.81,-168.79 471.81,-168.79"/>
<polygon fill="black" stroke="black" points="468.31,-168.79 471.81,-178.79 475.31,-168.79 468.31,-168.79"/>
</g>
<!-- EmpresasRoutingModule -->
<g id="node6" class="node">
<title>EmpresasRoutingModule</title>
<polygon fill="#8dd3c7" stroke="black" points="183.6,-84.8 180.6,-88.8 159.6,-88.8 156.6,-84.8 24.4,-84.8 24.4,-48.8 183.6,-48.8 183.6,-84.8"/>
<text text-anchor="middle" x="104" y="-62.6" font-family="Times,serif" font-size="14.00">EmpresasRoutingModule</text>
</g>
<!-- EmpresasRoutingModule&#45;&gt;EmpresasModule -->
<g id="edge5" class="edge">
<title>EmpresasRoutingModule&#45;&gt;EmpresasModule</title>
<path fill="none" stroke="black" d="M104,-85.08C104,-106.12 104,-137.8 104,-137.8 104,-137.8 434.98,-137.8 434.98,-137.8"/>
<polygon fill="black" stroke="black" points="434.98,-141.3 444.98,-137.8 434.98,-134.3 434.98,-141.3"/>
</g>
</g>
</svg>
