<?xml version="1.0" encoding="UTF-8" standalone="no"?>
<!DOCTYPE svg PUBLIC "-//W3C//DTD SVG 1.1//EN"
 "http://www.w3.org/Graphics/SVG/1.1/DTD/svg11.dtd">
<!-- Generated by graphviz version 3.0.0 (20220226.1711)
 -->
<!-- Title: dependencies Pages: 1 -->
<svg width="764pt" height="174pt"
 viewBox="0.00 0.00 764.00 173.80" xmlns="http://www.w3.org/2000/svg" xmlns:xlink="http://www.w3.org/1999/xlink">
<g id="graph0" class="graph" transform="scale(1 1) rotate(0) translate(4 169.8)">
<title>dependencies</title>
<polygon fill="white" stroke="transparent" points="-4,4 -4,-169.8 760,-169.8 760,4 -4,4"/>
<text text-anchor="middle" x="378" y="-8.2" font-family="sans-serif" font-size="14.00">dependencies</text>
<g id="clust1" class="cluster">
<title>cluster_CentrosModule</title>
<polygon fill="none" stroke="black" stroke-dasharray="1,5" points="8,-32.8 8,-157.8 748,-157.8 748,-32.8 8,-32.8"/>
</g>
<g id="clust6" class="cluster">
<title>cluster_CentrosModule_imports</title>
<polygon fill="none" stroke="black" points="576,-40.8 576,-92.8 740,-92.8 740,-40.8 576,-40.8"/>
</g>
<g id="clust2" class="cluster">
<title>cluster_CentrosModule_declarations</title>
<polygon fill="none" stroke="black" points="16,-40.8 16,-92.8 568,-92.8 568,-40.8 16,-40.8"/>
</g>
<!-- InsertarCentroComponent -->
<g id="node1" class="node">
<title>InsertarCentroComponent</title>
<polygon fill="#ffffb3" stroke="black" points="560.19,-84.8 397.81,-84.8 397.81,-48.8 560.19,-48.8 560.19,-84.8"/>
<text text-anchor="middle" x="479" y="-62.6" font-family="Times,serif" font-size="14.00">InsertarCentroComponent</text>
</g>
<!-- CentrosModule -->
<g id="node4" class="node">
<title>CentrosModule</title>
<polygon fill="#8dd3c7" stroke="black" points="441.6,-149.8 438.6,-153.8 417.6,-153.8 414.6,-149.8 338.4,-149.8 338.4,-113.8 441.6,-113.8 441.6,-149.8"/>
<text text-anchor="middle" x="390" y="-127.6" font-family="Times,serif" font-size="14.00">CentrosModule</text>
</g>
<!-- InsertarCentroComponent&#45;&gt;CentrosModule -->
<g id="edge1" class="edge">
<title>InsertarCentroComponent&#45;&gt;CentrosModule</title>
<path fill="none" stroke="black" d="M419.73,-84.91C419.73,-84.91 419.73,-103.79 419.73,-103.79"/>
<polygon fill="black" stroke="black" points="416.23,-103.79 419.73,-113.79 423.23,-103.79 416.23,-103.79"/>
</g>
<!-- ListarCentrosComponent -->
<g id="node2" class="node">
<title>ListarCentrosComponent</title>
<polygon fill="#ffffb3" stroke="black" points="379.54,-84.8 222.46,-84.8 222.46,-48.8 379.54,-48.8 379.54,-84.8"/>
<text text-anchor="middle" x="301" y="-62.6" font-family="Times,serif" font-size="14.00">ListarCentrosComponent</text>
</g>
<!-- ListarCentrosComponent&#45;&gt;CentrosModule -->
<g id="edge2" class="edge">
<title>ListarCentrosComponent&#45;&gt;CentrosModule</title>
<path fill="none" stroke="black" d="M359.11,-84.91C359.11,-84.91 359.11,-103.79 359.11,-103.79"/>
<polygon fill="black" stroke="black" points="355.61,-103.79 359.11,-113.79 362.61,-103.79 355.61,-103.79"/>
</g>
<!-- ModificarCentrosComponent -->
<g id="node3" class="node">
<title>ModificarCentrosComponent</title>
<polygon fill="#ffffb3" stroke="black" points="204.36,-84.8 23.64,-84.8 23.64,-48.8 204.36,-48.8 204.36,-84.8"/>
<text text-anchor="middle" x="114" y="-62.6" font-family="Times,serif" font-size="14.00">ModificarCentrosComponent</text>
</g>
<!-- ModificarCentrosComponent&#45;&gt;CentrosModule -->
<g id="edge3" class="edge">
<title>ModificarCentrosComponent&#45;&gt;CentrosModule</title>
<path fill="none" stroke="black" d="M114,-84.91C114,-104.14 114,-131.8 114,-131.8 114,-131.8 328.41,-131.8 328.41,-131.8"/>
<polygon fill="black" stroke="black" points="328.41,-135.3 338.41,-131.8 328.41,-128.3 328.41,-135.3"/>
</g>
<!-- CentrosRoutingModule -->
<g id="node5" class="node">
<title>CentrosRoutingModule</title>
<polygon fill="#8dd3c7" stroke="black" points="732.22,-84.8 729.22,-88.8 708.22,-88.8 705.22,-84.8 583.78,-84.8 583.78,-48.8 732.22,-48.8 732.22,-84.8"/>
<text text-anchor="middle" x="658" y="-62.6" font-family="Times,serif" font-size="14.00">CentrosRoutingModule</text>
</g>
<!-- CentrosRoutingModule&#45;&gt;CentrosModule -->
<g id="edge4" class="edge">
<title>CentrosRoutingModule&#45;&gt;CentrosModule</title>
<path fill="none" stroke="black" d="M658,-84.91C658,-104.14 658,-131.8 658,-131.8 658,-131.8 451.67,-131.8 451.67,-131.8"/>
<polygon fill="black" stroke="black" points="451.67,-128.3 441.67,-131.8 451.67,-135.3 451.67,-128.3"/>
</g>
</g>
</svg>
