<?xml version="1.0" encoding="UTF-8" standalone="no"?>
<!DOCTYPE svg PUBLIC "-//W3C//DTD SVG 1.1//EN"
 "http://www.w3.org/Graphics/SVG/1.1/DTD/svg11.dtd">
<!-- Generated by graphviz version 3.0.0 (20220226.1711)
 -->
<!-- Title: dependencies Pages: 1 -->
<svg width="612pt" height="174pt"
 viewBox="0.00 0.00 612.00 173.80" xmlns="http://www.w3.org/2000/svg" xmlns:xlink="http://www.w3.org/1999/xlink">
<g id="graph0" class="graph" transform="scale(1 1) rotate(0) translate(4 169.8)">
<title>dependencies</title>
<polygon fill="white" stroke="transparent" points="-4,4 -4,-169.8 608,-169.8 608,4 -4,4"/>
<text text-anchor="middle" x="302" y="-8.2" font-family="sans-serif" font-size="14.00">dependencies</text>
<g id="clust1" class="cluster">
<title>cluster_AlumnosModule</title>
<polygon fill="none" stroke="black" stroke-dasharray="1,5" points="8,-32.8 8,-157.8 596,-157.8 596,-32.8 8,-32.8"/>
</g>
<g id="clust5" class="cluster">
<title>cluster_AlumnosModule_imports</title>
<polygon fill="none" stroke="black" points="319,-40.8 319,-92.8 588,-92.8 588,-40.8 319,-40.8"/>
</g>
<g id="clust2" class="cluster">
<title>cluster_AlumnosModule_declarations</title>
<polygon fill="none" stroke="black" points="16,-40.8 16,-92.8 311,-92.8 311,-40.8 16,-40.8"/>
</g>
<!-- AlumnosComponent -->
<g id="node1" class="node">
<title>AlumnosComponent</title>
<polygon fill="#ffffb3" stroke="black" points="303.17,-84.8 170.83,-84.8 170.83,-48.8 303.17,-48.8 303.17,-84.8"/>
<text text-anchor="middle" x="237" y="-62.6" font-family="Times,serif" font-size="14.00">AlumnosComponent</text>
</g>
<!-- AlumnosModule -->
<g id="node3" class="node">
<title>AlumnosModule</title>
<polygon fill="#8dd3c7" stroke="black" points="369.39,-149.8 366.39,-153.8 345.39,-153.8 342.39,-149.8 258.61,-149.8 258.61,-113.8 369.39,-113.8 369.39,-149.8"/>
<text text-anchor="middle" x="314" y="-127.6" font-family="Times,serif" font-size="14.00">AlumnosModule</text>
</g>
<!-- AlumnosComponent&#45;&gt;AlumnosModule -->
<g id="edge1" class="edge">
<title>AlumnosComponent&#45;&gt;AlumnosModule</title>
<path fill="none" stroke="black" d="M280.94,-84.91C280.94,-84.91 280.94,-103.79 280.94,-103.79"/>
<polygon fill="black" stroke="black" points="277.44,-103.79 280.94,-113.79 284.44,-103.79 277.44,-103.79"/>
</g>
<!-- AnexoVComponent -->
<g id="node2" class="node">
<title>AnexoVComponent</title>
<polygon fill="#ffffb3" stroke="black" points="152.27,-84.8 23.73,-84.8 23.73,-48.8 152.27,-48.8 152.27,-84.8"/>
<text text-anchor="middle" x="88" y="-62.6" font-family="Times,serif" font-size="14.00">AnexoVComponent</text>
</g>
<!-- AnexoVComponent&#45;&gt;AlumnosModule -->
<g id="edge2" class="edge">
<title>AnexoVComponent&#45;&gt;AlumnosModule</title>
<path fill="none" stroke="black" d="M88,-84.91C88,-104.14 88,-131.8 88,-131.8 88,-131.8 248.42,-131.8 248.42,-131.8"/>
<polygon fill="black" stroke="black" points="248.42,-135.3 258.42,-131.8 248.42,-128.3 248.42,-135.3"/>
</g>
<!-- AnexoVModule -->
<g id="node4" class="node">
<title>AnexoVModule</title>
<polygon fill="#8dd3c7" stroke="black" points="580.49,-84.8 577.49,-88.8 556.49,-88.8 553.49,-84.8 473.51,-84.8 473.51,-48.8 580.49,-48.8 580.49,-84.8"/>
<text text-anchor="middle" x="527" y="-62.6" font-family="Times,serif" font-size="14.00">AnexoVModule</text>
</g>
<!-- AnexoVModule&#45;&gt;AlumnosModule -->
<g id="edge3" class="edge">
<title>AnexoVModule&#45;&gt;AlumnosModule</title>
<path fill="none" stroke="black" d="M527,-84.91C527,-104.14 527,-131.8 527,-131.8 527,-131.8 379.41,-131.8 379.41,-131.8"/>
<polygon fill="black" stroke="black" points="379.41,-128.3 369.41,-131.8 379.41,-135.3 379.41,-128.3"/>
</g>
<!-- AppRoutingModule -->
<g id="node5" class="node">
<title>AppRoutingModule</title>
<polygon fill="#8dd3c7" stroke="black" points="455.28,-84.8 452.28,-88.8 431.28,-88.8 428.28,-84.8 326.72,-84.8 326.72,-48.8 455.28,-48.8 455.28,-84.8"/>
<text text-anchor="middle" x="391" y="-62.6" font-family="Times,serif" font-size="14.00">AppRoutingModule</text>
</g>
<!-- AppRoutingModule&#45;&gt;AlumnosModule -->
<g id="edge4" class="edge">
<title>AppRoutingModule&#45;&gt;AlumnosModule</title>
<path fill="none" stroke="black" d="M348.03,-84.91C348.03,-84.91 348.03,-103.79 348.03,-103.79"/>
<polygon fill="black" stroke="black" points="344.53,-103.79 348.03,-113.79 351.53,-103.79 344.53,-103.79"/>
</g>
</g>
</svg>
