<?xml version="1.0" encoding="UTF-8" standalone="no"?>
<!DOCTYPE svg PUBLIC "-//W3C//DTD SVG 1.1//EN"
 "http://www.w3.org/Graphics/SVG/1.1/DTD/svg11.dtd">
<!-- Generated by graphviz version 3.0.0 (20220226.1711)
 -->
<!-- Title: dependencies Pages: 1 -->
<svg width="993pt" height="174pt"
 viewBox="0.00 0.00 993.00 173.80" xmlns="http://www.w3.org/2000/svg" xmlns:xlink="http://www.w3.org/1999/xlink">
<g id="graph0" class="graph" transform="scale(1 1) rotate(0) translate(4 169.8)">
<title>dependencies</title>
<polygon fill="white" stroke="transparent" points="-4,4 -4,-169.8 989,-169.8 989,4 -4,4"/>
<text text-anchor="middle" x="492.5" y="-8.2" font-family="sans-serif" font-size="14.00">dependencies</text>
<g id="clust1" class="cluster">
<title>cluster_AdminModule</title>
<polygon fill="none" stroke="black" stroke-dasharray="1,5" points="8,-32.8 8,-157.8 977,-157.8 977,-32.8 8,-32.8"/>
</g>
<g id="clust2" class="cluster">
<title>cluster_AdminModule_declarations</title>
<polygon fill="none" stroke="black" points="690,-40.8 690,-92.8 969,-92.8 969,-40.8 690,-40.8"/>
</g>
<g id="clust5" class="cluster">
<title>cluster_AdminModule_imports</title>
<polygon fill="none" stroke="black" points="16,-40.8 16,-92.8 682,-92.8 682,-40.8 16,-40.8"/>
</g>
<!-- AdminComponent -->
<g id="node1" class="node">
<title>AdminComponent</title>
<polygon fill="#ffffb3" stroke="black" points="961.22,-84.8 840.78,-84.8 840.78,-48.8 961.22,-48.8 961.22,-84.8"/>
<text text-anchor="middle" x="901" y="-62.6" font-family="Times,serif" font-size="14.00">AdminComponent</text>
</g>
<!-- AdminModule -->
<g id="node3" class="node">
<title>AdminModule</title>
<polygon fill="#8dd3c7" stroke="black" points="527.44,-149.8 524.44,-153.8 503.44,-153.8 500.44,-149.8 428.56,-149.8 428.56,-113.8 527.44,-113.8 527.44,-149.8"/>
<text text-anchor="middle" x="478" y="-127.6" font-family="Times,serif" font-size="14.00">AdminModule</text>
</g>
<!-- AdminComponent&#45;&gt;AdminModule -->
<g id="edge1" class="edge">
<title>AdminComponent&#45;&gt;AdminModule</title>
<path fill="none" stroke="black" d="M901,-85.09C901,-107.01 901,-140.8 901,-140.8 901,-140.8 537.35,-140.8 537.35,-140.8"/>
<polygon fill="black" stroke="black" points="537.35,-137.3 527.35,-140.8 537.35,-144.3 537.35,-137.3"/>
</g>
<!-- CentrosComponent -->
<g id="node2" class="node">
<title>CentrosComponent</title>
<polygon fill="#ffffb3" stroke="black" points="822.38,-84.8 697.62,-84.8 697.62,-48.8 822.38,-48.8 822.38,-84.8"/>
<text text-anchor="middle" x="760" y="-62.6" font-family="Times,serif" font-size="14.00">CentrosComponent</text>
</g>
<!-- CentrosComponent&#45;&gt;AdminModule -->
<g id="edge2" class="edge">
<title>CentrosComponent&#45;&gt;AdminModule</title>
<path fill="none" stroke="black" d="M760,-84.91C760,-104.14 760,-131.8 760,-131.8 760,-131.8 537.44,-131.8 537.44,-131.8"/>
<polygon fill="black" stroke="black" points="537.44,-128.3 527.44,-131.8 537.44,-135.3 537.44,-128.3"/>
</g>
<!-- AppRoutingModule -->
<g id="node4" class="node">
<title>AppRoutingModule</title>
<polygon fill="#8dd3c7" stroke="black" points="674.28,-84.8 671.28,-88.8 650.28,-88.8 647.28,-84.8 545.72,-84.8 545.72,-48.8 674.28,-48.8 674.28,-84.8"/>
<text text-anchor="middle" x="610" y="-62.6" font-family="Times,serif" font-size="14.00">AppRoutingModule</text>
</g>
<!-- AppRoutingModule&#45;&gt;AdminModule -->
<g id="edge3" class="edge">
<title>AppRoutingModule&#45;&gt;AdminModule</title>
<path fill="none" stroke="black" d="M610,-84.83C610,-101.2 610,-122.8 610,-122.8 610,-122.8 537.53,-122.8 537.53,-122.8"/>
<polygon fill="black" stroke="black" points="537.53,-119.3 527.53,-122.8 537.53,-126.3 537.53,-119.3"/>
</g>
<!-- CursosModule -->
<g id="node5" class="node">
<title>CursosModule</title>
<polygon fill="#8dd3c7" stroke="black" points="527.45,-84.8 524.45,-88.8 503.45,-88.8 500.45,-84.8 428.55,-84.8 428.55,-48.8 527.45,-48.8 527.45,-84.8"/>
<text text-anchor="middle" x="478" y="-62.6" font-family="Times,serif" font-size="14.00">CursosModule</text>
</g>
<!-- CursosModule&#45;&gt;AdminModule -->
<g id="edge4" class="edge">
<title>CursosModule&#45;&gt;AdminModule</title>
<path fill="none" stroke="black" d="M478,-84.91C478,-84.91 478,-103.79 478,-103.79"/>
<polygon fill="black" stroke="black" points="474.5,-103.79 478,-113.79 481.5,-103.79 474.5,-103.79"/>
</g>
<!-- EmpresasModule -->
<g id="node6" class="node">
<title>EmpresasModule</title>
<polygon fill="#8dd3c7" stroke="black" points="410.98,-84.8 407.98,-88.8 386.98,-88.8 383.98,-84.8 297.02,-84.8 297.02,-48.8 410.98,-48.8 410.98,-84.8"/>
<text text-anchor="middle" x="354" y="-62.6" font-family="Times,serif" font-size="14.00">EmpresasModule</text>
</g>
<!-- EmpresasModule&#45;&gt;AdminModule -->
<g id="edge5" class="edge">
<title>EmpresasModule&#45;&gt;AdminModule</title>
<path fill="none" stroke="black" d="M354,-84.83C354,-101.2 354,-122.8 354,-122.8 354,-122.8 418.64,-122.8 418.64,-122.8"/>
<polygon fill="black" stroke="black" points="418.64,-126.3 428.64,-122.8 418.64,-119.3 418.64,-126.3"/>
</g>
<!-- ProfesorModule -->
<g id="node7" class="node">
<title>ProfesorModule</title>
<polygon fill="#8dd3c7" stroke="black" points="279.49,-84.8 276.49,-88.8 255.49,-88.8 252.49,-84.8 172.51,-84.8 172.51,-48.8 279.49,-48.8 279.49,-84.8"/>
<text text-anchor="middle" x="226" y="-62.6" font-family="Times,serif" font-size="14.00">ProfesorModule</text>
</g>
<!-- ProfesorModule&#45;&gt;AdminModule -->
<g id="edge6" class="edge">
<title>ProfesorModule&#45;&gt;AdminModule</title>
<path fill="none" stroke="black" d="M226,-84.91C226,-104.14 226,-131.8 226,-131.8 226,-131.8 418.51,-131.8 418.51,-131.8"/>
<polygon fill="black" stroke="black" points="418.51,-135.3 428.51,-131.8 418.51,-128.3 418.51,-135.3"/>
</g>
<!-- ResponsableModule -->
<g id="node8" class="node">
<title>ResponsableModule</title>
<polygon fill="#8dd3c7" stroke="black" points="154.32,-84.8 151.32,-88.8 130.32,-88.8 127.32,-84.8 23.68,-84.8 23.68,-48.8 154.32,-48.8 154.32,-84.8"/>
<text text-anchor="middle" x="89" y="-62.6" font-family="Times,serif" font-size="14.00">ResponsableModule</text>
</g>
<!-- ResponsableModule&#45;&gt;AdminModule -->
<g id="edge7" class="edge">
<title>ResponsableModule&#45;&gt;AdminModule</title>
<path fill="none" stroke="black" d="M89,-85.09C89,-107.01 89,-140.8 89,-140.8 89,-140.8 418.73,-140.8 418.73,-140.8"/>
<polygon fill="black" stroke="black" points="418.73,-144.3 428.73,-140.8 418.73,-137.3 418.73,-144.3"/>
</g>
</g>
</svg>
