<?xml version="1.0" encoding="UTF-8" standalone="no"?>
<!DOCTYPE svg PUBLIC "-//W3C//DTD SVG 1.1//EN"
 "http://www.w3.org/Graphics/SVG/1.1/DTD/svg11.dtd">
<!-- Generated by graphviz version 3.0.0 (20220226.1711)
 -->
<!-- Title: dependencies Pages: 1 -->
<svg width="885pt" height="247pt"
 viewBox="0.00 0.00 885.00 246.80" xmlns="http://www.w3.org/2000/svg" xmlns:xlink="http://www.w3.org/1999/xlink">
<g id="graph0" class="graph" transform="scale(1 1) rotate(0) translate(4 242.8)">
<title>dependencies</title>
<polygon fill="white" stroke="transparent" points="-4,4 -4,-242.8 881,-242.8 881,4 -4,4"/>
<text text-anchor="middle" x="438.5" y="-8.2" font-family="sans-serif" font-size="14.00">dependencies</text>
<g id="clust1" class="cluster">
<title>cluster_CursosModule</title>
<polygon fill="none" stroke="black" stroke-dasharray="1,5" points="8,-32.8 8,-230.8 869,-230.8 869,-32.8 8,-32.8"/>
</g>
<g id="clust8" class="cluster">
<title>cluster_CursosModule_exports</title>
<polygon fill="none" stroke="black" points="285,-170.8 285,-222.8 623,-222.8 623,-170.8 285,-170.8"/>
</g>
<g id="clust7" class="cluster">
<title>cluster_CursosModule_imports</title>
<polygon fill="none" stroke="black" points="701,-40.8 701,-92.8 861,-92.8 861,-40.8 701,-40.8"/>
</g>
<g id="clust2" class="cluster">
<title>cluster_CursosModule_declarations</title>
<polygon fill="none" stroke="black" points="16,-40.8 16,-92.8 693,-92.8 693,-40.8 16,-40.8"/>
</g>
<!-- CursosComponent -->
<g id="node1" class="node">
<title>CursosComponent</title>
<polygon fill="#ffffb3" stroke="black" points="685.23,-84.8 564.77,-84.8 564.77,-48.8 685.23,-48.8 685.23,-84.8"/>
<text text-anchor="middle" x="625" y="-62.6" font-family="Times,serif" font-size="14.00">CursosComponent</text>
</g>
<!-- CursosModule -->
<g id="node5" class="node">
<title>CursosModule</title>
<polygon fill="#8dd3c7" stroke="black" points="517.45,-149.8 514.45,-153.8 493.45,-153.8 490.45,-149.8 418.55,-149.8 418.55,-113.8 517.45,-113.8 517.45,-149.8"/>
<text text-anchor="middle" x="468" y="-127.6" font-family="Times,serif" font-size="14.00">CursosModule</text>
</g>
<!-- CursosComponent&#45;&gt;CursosModule -->
<g id="edge1" class="edge">
<title>CursosComponent&#45;&gt;CursosModule</title>
<path fill="none" stroke="black" d="M589.88,-84.82C589.88,-102.17 589.88,-125.8 589.88,-125.8 589.88,-125.8 527.57,-125.8 527.57,-125.8"/>
<polygon fill="black" stroke="black" points="527.57,-122.3 517.57,-125.8 527.57,-129.3 527.57,-122.3"/>
</g>
<!-- InsertarCursoComponent -->
<g id="node2" class="node">
<title>InsertarCursoComponent</title>
<polygon fill="#ffffb3" stroke="black" points="546.53,-84.8 389.47,-84.8 389.47,-48.8 546.53,-48.8 546.53,-84.8"/>
<text text-anchor="middle" x="468" y="-62.6" font-family="Times,serif" font-size="14.00">InsertarCursoComponent</text>
</g>
<!-- InsertarCursoComponent&#45;&gt;CursosModule -->
<g id="edge2" class="edge">
<title>InsertarCursoComponent&#45;&gt;CursosModule</title>
<path fill="none" stroke="black" d="M468,-84.91C468,-84.91 468,-103.79 468,-103.79"/>
<polygon fill="black" stroke="black" points="464.5,-103.79 468,-113.79 471.5,-103.79 464.5,-103.79"/>
</g>
<!-- ListarCursosComponent -->
<g id="node3" class="node">
<title>ListarCursosComponent</title>
<polygon fill="#ffffb3" stroke="black" points="371.38,-84.8 218.62,-84.8 218.62,-48.8 371.38,-48.8 371.38,-84.8"/>
<text text-anchor="middle" x="295" y="-62.6" font-family="Times,serif" font-size="14.00">ListarCursosComponent</text>
</g>
<!-- ListarCursosComponent&#45;&gt;CursosModule -->
<g id="edge3" class="edge">
<title>ListarCursosComponent&#45;&gt;CursosModule</title>
<path fill="none" stroke="black" d="M332.29,-84.82C332.29,-102.17 332.29,-125.8 332.29,-125.8 332.29,-125.8 408.62,-125.8 408.62,-125.8"/>
<polygon fill="black" stroke="black" points="408.62,-129.3 418.62,-125.8 408.62,-122.3 408.62,-129.3"/>
</g>
<!-- ModificarCursosComponent -->
<g id="node4" class="node">
<title>ModificarCursosComponent</title>
<polygon fill="#ffffb3" stroke="black" points="200.21,-84.8 23.79,-84.8 23.79,-48.8 200.21,-48.8 200.21,-84.8"/>
<text text-anchor="middle" x="112" y="-62.6" font-family="Times,serif" font-size="14.00">ModificarCursosComponent</text>
</g>
<!-- ModificarCursosComponent&#45;&gt;CursosModule -->
<g id="edge4" class="edge">
<title>ModificarCursosComponent&#45;&gt;CursosModule</title>
<path fill="none" stroke="black" d="M112,-85.08C112,-106.12 112,-137.8 112,-137.8 112,-137.8 408.5,-137.8 408.5,-137.8"/>
<polygon fill="black" stroke="black" points="408.5,-141.3 418.5,-137.8 408.5,-134.3 408.5,-141.3"/>
</g>
<!-- CursosComponent  -->
<g id="node7" class="node">
<title>CursosComponent </title>
<polygon fill="#fb8072" stroke="black" points="614.73,-214.8 491.27,-214.8 491.27,-178.8 614.73,-178.8 614.73,-214.8"/>
<text text-anchor="middle" x="553" y="-192.6" font-family="Times,serif" font-size="14.00">CursosComponent </text>
</g>
<!-- CursosModule&#45;&gt;CursosComponent  -->
<g id="edge6" class="edge">
<title>CursosModule&#45;&gt;CursosComponent </title>
<path fill="none" stroke="black" stroke-dasharray="5,2" d="M504.18,-149.91C504.18,-149.91 504.18,-168.79 504.18,-168.79"/>
<polygon fill="black" stroke="black" points="500.68,-168.79 504.18,-178.79 507.68,-168.79 500.68,-168.79"/>
</g>
<!-- ModificarCursosComponent  -->
<g id="node8" class="node">
<title>ModificarCursosComponent </title>
<polygon fill="#fb8072" stroke="black" points="472.71,-214.8 293.29,-214.8 293.29,-178.8 472.71,-178.8 472.71,-214.8"/>
<text text-anchor="middle" x="383" y="-192.6" font-family="Times,serif" font-size="14.00">ModificarCursosComponent </text>
</g>
<!-- CursosModule&#45;&gt;ModificarCursosComponent  -->
<g id="edge7" class="edge">
<title>CursosModule&#45;&gt;ModificarCursosComponent </title>
<path fill="none" stroke="black" stroke-dasharray="5,2" d="M445.81,-149.91C445.81,-149.91 445.81,-168.79 445.81,-168.79"/>
<polygon fill="black" stroke="black" points="442.31,-168.79 445.81,-178.79 449.31,-168.79 442.31,-168.79"/>
</g>
<!-- CursosRoutingModule -->
<g id="node6" class="node">
<title>CursosRoutingModule</title>
<polygon fill="#8dd3c7" stroke="black" points="852.57,-84.8 849.57,-88.8 828.57,-88.8 825.57,-84.8 709.43,-84.8 709.43,-48.8 852.57,-48.8 852.57,-84.8"/>
<text text-anchor="middle" x="781" y="-62.6" font-family="Times,serif" font-size="14.00">CursosRoutingModule</text>
</g>
<!-- CursosRoutingModule&#45;&gt;CursosModule -->
<g id="edge5" class="edge">
<title>CursosRoutingModule&#45;&gt;CursosModule</title>
<path fill="none" stroke="black" d="M781,-85.08C781,-106.12 781,-137.8 781,-137.8 781,-137.8 527.25,-137.8 527.25,-137.8"/>
<polygon fill="black" stroke="black" points="527.25,-134.3 517.25,-137.8 527.25,-141.3 527.25,-134.3"/>
</g>
</g>
</svg>
