<?xml version="1.0" encoding="UTF-8" standalone="no"?>
<!DOCTYPE svg PUBLIC "-//W3C//DTD SVG 1.1//EN"
 "http://www.w3.org/Graphics/SVG/1.1/DTD/svg11.dtd">
<!-- Generated by graphviz version 3.0.0 (20220226.1711)
 -->
<!-- Title: dependencies Pages: 1 -->
<svg width="932pt" height="174pt"
 viewBox="0.00 0.00 932.00 173.80" xmlns="http://www.w3.org/2000/svg" xmlns:xlink="http://www.w3.org/1999/xlink">
<g id="graph0" class="graph" transform="scale(1 1) rotate(0) translate(4 169.8)">
<title>dependencies</title>
<polygon fill="white" stroke="transparent" points="-4,4 -4,-169.8 928,-169.8 928,4 -4,4"/>
<text text-anchor="middle" x="462" y="-8.2" font-family="sans-serif" font-size="14.00">dependencies</text>
<g id="clust1" class="cluster">
<title>cluster_ProfesorModule</title>
<polygon fill="none" stroke="black" stroke-dasharray="1,5" points="8,-32.8 8,-157.8 916,-157.8 916,-32.8 8,-32.8"/>
</g>
<g id="clust2" class="cluster">
<title>cluster_ProfesorModule_declarations</title>
<polygon fill="none" stroke="black" points="192,-40.8 192,-92.8 908,-92.8 908,-40.8 192,-40.8"/>
</g>
<g id="clust7" class="cluster">
<title>cluster_ProfesorModule_imports</title>
<polygon fill="none" stroke="black" points="16,-40.8 16,-92.8 184,-92.8 184,-40.8 16,-40.8"/>
</g>
<!-- InsertarProfesorComponent -->
<g id="node1" class="node">
<title>InsertarProfesorComponent</title>
<polygon fill="#ffffb3" stroke="black" points="899.52,-84.8 728.48,-84.8 728.48,-48.8 899.52,-48.8 899.52,-84.8"/>
<text text-anchor="middle" x="814" y="-62.6" font-family="Times,serif" font-size="14.00">InsertarProfesorComponent</text>
</g>
<!-- ProfesorModule -->
<g id="node5" class="node">
<title>ProfesorModule</title>
<polygon fill="#8dd3c7" stroke="black" points="492.49,-149.8 489.49,-153.8 468.49,-153.8 465.49,-149.8 385.51,-149.8 385.51,-113.8 492.49,-113.8 492.49,-149.8"/>
<text text-anchor="middle" x="439" y="-127.6" font-family="Times,serif" font-size="14.00">ProfesorModule</text>
</g>
<!-- InsertarProfesorComponent&#45;&gt;ProfesorModule -->
<g id="edge1" class="edge">
<title>InsertarProfesorComponent&#45;&gt;ProfesorModule</title>
<path fill="none" stroke="black" d="M814,-85.08C814,-106.12 814,-137.8 814,-137.8 814,-137.8 502.73,-137.8 502.73,-137.8"/>
<polygon fill="black" stroke="black" points="502.73,-134.3 492.73,-137.8 502.73,-141.3 502.73,-134.3"/>
</g>
<!-- ListarProfesorComponent -->
<g id="node2" class="node">
<title>ListarProfesorComponent</title>
<polygon fill="#ffffb3" stroke="black" points="710.92,-84.8 549.08,-84.8 549.08,-48.8 710.92,-48.8 710.92,-84.8"/>
<text text-anchor="middle" x="630" y="-62.6" font-family="Times,serif" font-size="14.00">ListarProfesorComponent</text>
</g>
<!-- ListarProfesorComponent&#45;&gt;ProfesorModule -->
<g id="edge2" class="edge">
<title>ListarProfesorComponent&#45;&gt;ProfesorModule</title>
<path fill="none" stroke="black" d="M630,-84.82C630,-102.17 630,-125.8 630,-125.8 630,-125.8 502.71,-125.8 502.71,-125.8"/>
<polygon fill="black" stroke="black" points="502.71,-122.3 492.71,-125.8 502.71,-129.3 502.71,-122.3"/>
</g>
<!-- ModificarProfesorComponent -->
<g id="node3" class="node">
<title>ModificarProfesorComponent</title>
<polygon fill="#ffffb3" stroke="black" points="531.25,-84.8 346.75,-84.8 346.75,-48.8 531.25,-48.8 531.25,-84.8"/>
<text text-anchor="middle" x="439" y="-62.6" font-family="Times,serif" font-size="14.00">ModificarProfesorComponent</text>
</g>
<!-- ModificarProfesorComponent&#45;&gt;ProfesorModule -->
<g id="edge3" class="edge">
<title>ModificarProfesorComponent&#45;&gt;ProfesorModule</title>
<path fill="none" stroke="black" d="M439,-84.91C439,-84.91 439,-103.79 439,-103.79"/>
<polygon fill="black" stroke="black" points="435.5,-103.79 439,-113.79 442.5,-103.79 435.5,-103.79"/>
</g>
<!-- ProfesorComponent -->
<g id="node4" class="node">
<title>ProfesorComponent</title>
<polygon fill="#ffffb3" stroke="black" points="328.27,-84.8 199.73,-84.8 199.73,-48.8 328.27,-48.8 328.27,-84.8"/>
<text text-anchor="middle" x="264" y="-62.6" font-family="Times,serif" font-size="14.00">ProfesorComponent</text>
</g>
<!-- ProfesorComponent&#45;&gt;ProfesorModule -->
<g id="edge4" class="edge">
<title>ProfesorComponent&#45;&gt;ProfesorModule</title>
<path fill="none" stroke="black" d="M264,-84.82C264,-102.17 264,-125.8 264,-125.8 264,-125.8 375.07,-125.8 375.07,-125.8"/>
<polygon fill="black" stroke="black" points="375.07,-129.3 385.07,-125.8 375.07,-122.3 375.07,-129.3"/>
</g>
<!-- ProfesorRoutingModule -->
<g id="node6" class="node">
<title>ProfesorRoutingModule</title>
<polygon fill="#8dd3c7" stroke="black" points="176.1,-84.8 173.1,-88.8 152.1,-88.8 149.1,-84.8 23.9,-84.8 23.9,-48.8 176.1,-48.8 176.1,-84.8"/>
<text text-anchor="middle" x="100" y="-62.6" font-family="Times,serif" font-size="14.00">ProfesorRoutingModule</text>
</g>
<!-- ProfesorRoutingModule&#45;&gt;ProfesorModule -->
<g id="edge5" class="edge">
<title>ProfesorRoutingModule&#45;&gt;ProfesorModule</title>
<path fill="none" stroke="black" d="M100,-85.08C100,-106.12 100,-137.8 100,-137.8 100,-137.8 375.28,-137.8 375.28,-137.8"/>
<polygon fill="black" stroke="black" points="375.28,-141.3 385.28,-137.8 375.28,-134.3 375.28,-141.3"/>
</g>
</g>
</svg>
