<?xml version="1.0" encoding="UTF-8" standalone="no"?>
<!DOCTYPE svg PUBLIC "-//W3C//DTD SVG 1.1//EN"
 "http://www.w3.org/Graphics/SVG/1.1/DTD/svg11.dtd">
<!-- Generated by graphviz version 3.0.0 (20220226.1711)
 -->
<!-- Title: dependencies Pages: 1 -->
<svg width="803pt" height="174pt"
 viewBox="0.00 0.00 803.00 173.80" xmlns="http://www.w3.org/2000/svg" xmlns:xlink="http://www.w3.org/1999/xlink">
<g id="graph0" class="graph" transform="scale(1 1) rotate(0) translate(4 169.8)">
<title>dependencies</title>
<polygon fill="white" stroke="transparent" points="-4,4 -4,-169.8 799,-169.8 799,4 -4,4"/>
<text text-anchor="middle" x="397.5" y="-8.2" font-family="sans-serif" font-size="14.00">dependencies</text>
<g id="clust1" class="cluster">
<title>cluster_CsvModule</title>
<polygon fill="none" stroke="black" stroke-dasharray="1,5" points="8,-32.8 8,-157.8 787,-157.8 787,-32.8 8,-32.8"/>
</g>
<g id="clust7" class="cluster">
<title>cluster_CsvModule_imports</title>
<polygon fill="none" stroke="black" points="637,-40.8 637,-92.8 779,-92.8 779,-40.8 637,-40.8"/>
</g>
<g id="clust2" class="cluster">
<title>cluster_CsvModule_declarations</title>
<polygon fill="none" stroke="black" points="16,-40.8 16,-92.8 629,-92.8 629,-40.8 16,-40.8"/>
</g>
<!-- AsignarComponent -->
<g id="node1" class="node">
<title>AsignarComponent</title>
<polygon fill="#ffffb3" stroke="black" points="620.66,-84.8 495.34,-84.8 495.34,-48.8 620.66,-48.8 620.66,-84.8"/>
<text text-anchor="middle" x="558" y="-62.6" font-family="Times,serif" font-size="14.00">AsignarComponent</text>
</g>
<!-- CsvModule -->
<g id="node5" class="node">
<title>CsvModule</title>
<polygon fill="#8dd3c7" stroke="black" points="438.84,-149.8 435.84,-153.8 414.84,-153.8 411.84,-149.8 357.16,-149.8 357.16,-113.8 438.84,-113.8 438.84,-149.8"/>
<text text-anchor="middle" x="398" y="-127.6" font-family="Times,serif" font-size="14.00">CsvModule</text>
</g>
<!-- AsignarComponent&#45;&gt;CsvModule -->
<g id="edge1" class="edge">
<title>AsignarComponent&#45;&gt;CsvModule</title>
<path fill="none" stroke="black" d="M558,-84.82C558,-102.17 558,-125.8 558,-125.8 558,-125.8 448.79,-125.8 448.79,-125.8"/>
<polygon fill="black" stroke="black" points="448.79,-122.3 438.79,-125.8 448.79,-129.3 448.79,-122.3"/>
</g>
<!-- AsignarRolesComponent -->
<g id="node2" class="node">
<title>AsignarRolesComponent</title>
<polygon fill="#ffffb3" stroke="black" points="476.55,-84.8 319.45,-84.8 319.45,-48.8 476.55,-48.8 476.55,-84.8"/>
<text text-anchor="middle" x="398" y="-62.6" font-family="Times,serif" font-size="14.00">AsignarRolesComponent</text>
</g>
<!-- AsignarRolesComponent&#45;&gt;CsvModule -->
<g id="edge2" class="edge">
<title>AsignarRolesComponent&#45;&gt;CsvModule</title>
<path fill="none" stroke="black" d="M398,-84.91C398,-84.91 398,-103.79 398,-103.79"/>
<polygon fill="black" stroke="black" points="394.5,-103.79 398,-113.79 401.5,-103.79 394.5,-103.79"/>
</g>
<!-- CsvComponent -->
<g id="node3" class="node">
<title>CsvComponent</title>
<polygon fill="#ffffb3" stroke="black" points="301.62,-84.8 198.38,-84.8 198.38,-48.8 301.62,-48.8 301.62,-84.8"/>
<text text-anchor="middle" x="250" y="-62.6" font-family="Times,serif" font-size="14.00">CsvComponent</text>
</g>
<!-- CsvComponent&#45;&gt;CsvModule -->
<g id="edge3" class="edge">
<title>CsvComponent&#45;&gt;CsvModule</title>
<path fill="none" stroke="black" d="M250,-84.82C250,-102.17 250,-125.8 250,-125.8 250,-125.8 347.17,-125.8 347.17,-125.8"/>
<polygon fill="black" stroke="black" points="347.17,-129.3 357.17,-125.8 347.17,-122.3 347.17,-129.3"/>
</g>
<!-- InsertarDatosComponent -->
<g id="node4" class="node">
<title>InsertarDatosComponent</title>
<polygon fill="#ffffb3" stroke="black" points="180.25,-84.8 23.75,-84.8 23.75,-48.8 180.25,-48.8 180.25,-84.8"/>
<text text-anchor="middle" x="102" y="-62.6" font-family="Times,serif" font-size="14.00">InsertarDatosComponent</text>
</g>
<!-- InsertarDatosComponent&#45;&gt;CsvModule -->
<g id="edge4" class="edge">
<title>InsertarDatosComponent&#45;&gt;CsvModule</title>
<path fill="none" stroke="black" d="M102,-85.08C102,-106.12 102,-137.8 102,-137.8 102,-137.8 347.15,-137.8 347.15,-137.8"/>
<polygon fill="black" stroke="black" points="347.15,-141.3 357.15,-137.8 347.15,-134.3 347.15,-141.3"/>
</g>
<!-- CsvRoutingModule -->
<g id="node6" class="node">
<title>CsvRoutingModule</title>
<polygon fill="#8dd3c7" stroke="black" points="771.46,-84.8 768.46,-88.8 747.46,-88.8 744.46,-84.8 644.54,-84.8 644.54,-48.8 771.46,-48.8 771.46,-84.8"/>
<text text-anchor="middle" x="708" y="-62.6" font-family="Times,serif" font-size="14.00">CsvRoutingModule</text>
</g>
<!-- CsvRoutingModule&#45;&gt;CsvModule -->
<g id="edge5" class="edge">
<title>CsvRoutingModule&#45;&gt;CsvModule</title>
<path fill="none" stroke="black" d="M708,-85.08C708,-106.12 708,-137.8 708,-137.8 708,-137.8 448.85,-137.8 448.85,-137.8"/>
<polygon fill="black" stroke="black" points="448.85,-134.3 438.85,-137.8 448.85,-141.3 448.85,-134.3"/>
</g>
</g>
</svg>
