<?xml version="1.0" encoding="UTF-8" standalone="no"?>
<!DOCTYPE svg PUBLIC "-//W3C//DTD SVG 1.1//EN"
 "http://www.w3.org/Graphics/SVG/1.1/DTD/svg11.dtd">
<!-- Generated by graphviz version 3.0.0 (20220226.1711)
 -->
<!-- Title: dependencies Pages: 1 -->
<svg width="1049pt" height="174pt"
 viewBox="0.00 0.00 1049.00 173.80" xmlns="http://www.w3.org/2000/svg" xmlns:xlink="http://www.w3.org/1999/xlink">
<g id="graph0" class="graph" transform="scale(1 1) rotate(0) translate(4 169.8)">
<title>dependencies</title>
<polygon fill="white" stroke="transparent" points="-4,4 -4,-169.8 1045,-169.8 1045,4 -4,4"/>
<text text-anchor="middle" x="520.5" y="-8.2" font-family="sans-serif" font-size="14.00">dependencies</text>
<g id="clust1" class="cluster">
<title>cluster_ResponsableModule</title>
<polygon fill="none" stroke="black" stroke-dasharray="1,5" points="8,-32.8 8,-157.8 1033,-157.8 1033,-32.8 8,-32.8"/>
</g>
<g id="clust7" class="cluster">
<title>cluster_ResponsableModule_imports</title>
<polygon fill="none" stroke="black" points="833,-40.8 833,-92.8 1025,-92.8 1025,-40.8 833,-40.8"/>
</g>
<g id="clust2" class="cluster">
<title>cluster_ResponsableModule_declarations</title>
<polygon fill="none" stroke="black" points="16,-40.8 16,-92.8 825,-92.8 825,-40.8 16,-40.8"/>
</g>
<!-- InsertarResponsableComponent -->
<g id="node1" class="node">
<title>InsertarResponsableComponent</title>
<polygon fill="#ffffb3" stroke="black" points="817.35,-84.8 622.65,-84.8 622.65,-48.8 817.35,-48.8 817.35,-84.8"/>
<text text-anchor="middle" x="720" y="-62.6" font-family="Times,serif" font-size="14.00">InsertarResponsableComponent</text>
</g>
<!-- ResponsableModule -->
<g id="node5" class="node">
<title>ResponsableModule</title>
<polygon fill="#8dd3c7" stroke="black" points="577.32,-149.8 574.32,-153.8 553.32,-153.8 550.32,-149.8 446.68,-149.8 446.68,-113.8 577.32,-113.8 577.32,-149.8"/>
<text text-anchor="middle" x="512" y="-127.6" font-family="Times,serif" font-size="14.00">ResponsableModule</text>
</g>
<!-- InsertarResponsableComponent&#45;&gt;ResponsableModule -->
<g id="edge1" class="edge">
<title>InsertarResponsableComponent&#45;&gt;ResponsableModule</title>
<path fill="none" stroke="black" d="M720,-84.82C720,-102.17 720,-125.8 720,-125.8 720,-125.8 587.24,-125.8 587.24,-125.8"/>
<polygon fill="black" stroke="black" points="587.24,-122.3 577.24,-125.8 587.24,-129.3 587.24,-122.3"/>
</g>
<!-- ListarResponsableComponent -->
<g id="node2" class="node">
<title>ListarResponsableComponent</title>
<polygon fill="#ffffb3" stroke="black" points="604.25,-84.8 419.75,-84.8 419.75,-48.8 604.25,-48.8 604.25,-84.8"/>
<text text-anchor="middle" x="512" y="-62.6" font-family="Times,serif" font-size="14.00">ListarResponsableComponent</text>
</g>
<!-- ListarResponsableComponent&#45;&gt;ResponsableModule -->
<g id="edge2" class="edge">
<title>ListarResponsableComponent&#45;&gt;ResponsableModule</title>
<path fill="none" stroke="black" d="M512,-84.91C512,-84.91 512,-103.79 512,-103.79"/>
<polygon fill="black" stroke="black" points="508.5,-103.79 512,-113.79 515.5,-103.79 508.5,-103.79"/>
</g>
<!-- ModificarResponsableComponent -->
<g id="node3" class="node">
<title>ModificarResponsableComponent</title>
<polygon fill="#ffffb3" stroke="black" points="402.08,-84.8 193.92,-84.8 193.92,-48.8 402.08,-48.8 402.08,-84.8"/>
<text text-anchor="middle" x="298" y="-62.6" font-family="Times,serif" font-size="14.00">ModificarResponsableComponent</text>
</g>
<!-- ModificarResponsableComponent&#45;&gt;ResponsableModule -->
<g id="edge3" class="edge">
<title>ModificarResponsableComponent&#45;&gt;ResponsableModule</title>
<path fill="none" stroke="black" d="M298,-84.82C298,-102.17 298,-125.8 298,-125.8 298,-125.8 436.63,-125.8 436.63,-125.8"/>
<polygon fill="black" stroke="black" points="436.63,-129.3 446.63,-125.8 436.63,-122.3 436.63,-129.3"/>
</g>
<!-- ResponsableComponent -->
<g id="node4" class="node">
<title>ResponsableComponent</title>
<polygon fill="#ffffb3" stroke="black" points="176.1,-84.8 23.9,-84.8 23.9,-48.8 176.1,-48.8 176.1,-84.8"/>
<text text-anchor="middle" x="100" y="-62.6" font-family="Times,serif" font-size="14.00">ResponsableComponent</text>
</g>
<!-- ResponsableComponent&#45;&gt;ResponsableModule -->
<g id="edge4" class="edge">
<title>ResponsableComponent&#45;&gt;ResponsableModule</title>
<path fill="none" stroke="black" d="M100,-85.08C100,-106.12 100,-137.8 100,-137.8 100,-137.8 436.72,-137.8 436.72,-137.8"/>
<polygon fill="black" stroke="black" points="436.72,-141.3 446.72,-137.8 436.72,-134.3 436.72,-141.3"/>
</g>
<!-- ResponsableRoutingModule -->
<g id="node6" class="node">
<title>ResponsableRoutingModule</title>
<polygon fill="#8dd3c7" stroke="black" points="1016.94,-84.8 1013.94,-88.8 992.94,-88.8 989.94,-84.8 841.06,-84.8 841.06,-48.8 1016.94,-48.8 1016.94,-84.8"/>
<text text-anchor="middle" x="929" y="-62.6" font-family="Times,serif" font-size="14.00">ResponsableRoutingModule</text>
</g>
<!-- ResponsableRoutingModule&#45;&gt;ResponsableModule -->
<g id="edge5" class="edge">
<title>ResponsableRoutingModule&#45;&gt;ResponsableModule</title>
<path fill="none" stroke="black" d="M929,-85.08C929,-106.12 929,-137.8 929,-137.8 929,-137.8 587.61,-137.8 587.61,-137.8"/>
<polygon fill="black" stroke="black" points="587.62,-134.3 577.61,-137.8 587.61,-141.3 587.62,-134.3"/>
</g>
</g>
</svg>
